{"title":"Nanny.McPhee.and.the.Big.Bang.2010.BRRIP.720P.H264-ZEKTORM","uid":5697672,"size":1780385207,"categoryP":"video","categoryS":"hd___movies","magnet":"?xt=urn:btih:8315041f8ef8c09f5a17300babfe6a54f851a1bf&amp;dn=Nanny.McPhee.and.the.Big.Bang.2010.BRRIP.720P.H264-ZEKTORM&amp;tr=udp%3A%2F%2Ftracker.openbittorrent.com%3A80&amp;tr=udp%3A%2F%2Fopen.demonii.com%3A1337&amp;tr=udp%3A%2F%2Ftracker.coppersurfer.tk%3A6969&amp;tr=udp%3A%2F%2Fexodus.desync.com%3A6969","seeders":1,"leechers":3,"uploader":"blowley","files":4,"time":1279326831,"description":"Title                            : Nanny McPhee and the Big Bang\nAlso Known As                    : Nanny McPhee Returns\nYear                             : 2010\nGenre                            : Comedy | Family | Fantasy\niMDB URL                         : http://www.imdb.com/title/tt1415283/\n\nComplete name                    : Nanny.McPhee.and.the.Big.Bang.2010.BRRIP.720P.H264-ZEKTORM.mp4\nFormat                           : MPEG-4\nFormat profile                   : Base Media\nCodec ID                         : isom\nFile size                        : 1.66 GiB\nDuration                         : 1h 49mn\nOverall bit rate                 : 2173 Kbps\nSubtitles                        : English (Format: srt)\n\nVideo\nID                               : 1\nFormat                           : AVC\nFormat/Info                      : Advanced Video Codec\nFormat profile                   : &lt;a class=&quot;__cf_email__&quot; href=&quot;/cdn-cgi/l/email-protection&quot; data-cfemail=&quot;4901202e2109057d6779&quot;&gt;[email&amp;#160;protected]&lt;/a&gt;&lt;script cf-hash='f9e31' type=&quot;text/javascript&quot;&gt;\n/* &lt;![CDATA[ */!function(){try{var t=&quot;currentScript&quot;in document?document.currentScript:function(){for(var t=document.getElementsByTagName(&quot;script&quot;),e=t.length;e--;)if(t[e].getAttribute(&quot;cf-hash&quot;))return t[e]}();if(t&amp;&amp;t.previousSibling){var e,r,n,i,c=t.previousSibling,a=c.getAttribute(&quot;data-cfemail&quot;);if(a){for(e=&quot;&quot;,r=parseInt(a.substr(0,2),16),n=2;a.length-n;n+=2)i=parseInt(a.substr(n,2),16)^r,e+=String.fromCharCode(i);e=document.createTextNode(e),c.parentNode.replaceChild(e,c)}}}catch(u){}}();/* ]]&gt; */&lt;/script&gt;\nFormat settings, CABAC           : Yes\nFormat settings, ReFrames        : 4 frames\nCodec ID                         : avc1\nCodec ID/Info                    : Advanced Video Coding\nDuration                         : 1h 49mn\nBit rate mode                    : Variable\nBit rate                         : 1874 Kbps\nWidth                            : 1280 pixels\nHeight                           : 528 pixels\nDisplay aspect ratio             : 2.424\nFrame rate mode                  : Constant\nFrame rate                       : 23.976 fps\nResolution                       : 24 bits\nColorimetry                      : 4:2:0\nScan type                        : Progressive\nBits/(Pixel*Frame)               : 0.116\nStream size                      : 1.43 GiB (86%)\nTitle                            : Video\nWriting library                  : x264\n\nAudio #1\nID                               : 2\nFormat                           : AAC\nFormat/Info                      : Advanced Audio Codec\nFormat version                   : Version 4\nFormat profile                   : LC\nFormat settings, SBR             : Yes\nFormat settings, PS              : No\nCodec ID                         : 40\nDuration                         : 1h 49mn\nBit rate mode                    : Variable\nBit rate                         : 216 Kbps\nMaximum bit rate                 : 261 Kbps\nChannel(s)                       : 6 channels\nChannel positions                : Front: L C R, Rear: L R, LFE\nSampling rate                    : 48.0 KHz\nResolution                       : 16 bits\nStream size                      : 169 MiB (10%)\nTitle                            : English\nLanguage                         : English\n\nAudio #2\nID                               : 3\nFormat                           : AAC\nFormat/Info                      : Advanced Audio Codec\nFormat version                   : Version 4\nFormat profile                   : LC\nFormat settings, SBR             : Yes\nFormat settings, PS              : No\nCodec ID                         : 40\nDuration                         : 1h 49mn\nBit rate mode                    : Variable\nBit rate                         : 81.9 Kbps\nMaximum bit rate                 : 108 Kbps\nChannel(s)                       : 2 channels\nChannel positions                : L R\nSampling rate                    : 48.0 KHz\nResolution                       : 16 bits\nStream size                      : 64.0 MiB (4%)\nLanguage                         : English\n","torrent":{"xt":"urn:btih:8315041f8ef8c09f5a17300babfe6a54f851a1bf","amp;dn":"Nanny.McPhee.and.the.Big.Bang.2010.BRRIP.720P.H264-ZEKTORM","amp;tr":["udp%3A%2F%2Ftracker.openbittorrent.com%3A80","udp%3A%2F%2Fopen.demonii.com%3A1337","udp%3A%2F%2Ftracker.coppersurfer.tk%3A6969","udp%3A%2F%2Fexodus.desync.com%3A6969"],"infoHash":"8315041f8ef8c09f5a17300babfe6a54f851a1bf","infoHashBuffer":{"type":"Buffer","data":[131,21,4,31,142,248,192,159,90,23,48,11,171,254,106,84,248,81,161,191]},"announce":[],"urlList":[]}}